<svg width="34" height="34" viewBox="0 0 34 34" fill="none" xmlns="http://www.w3.org/2000/svg">
<circle cx="17" cy="17" r="17" fill="black"/>
<path d="M11.932 21.418C11.464 21.418 11.002 21.334 10.546 21.166C10.102 20.986 9.73 20.734 9.43 20.41L9.502 19.672V24.982H7V13.156H9.16L9.52 14.686L9.322 14.146C9.73 13.798 10.186 13.51 10.69 13.282C11.194 13.054 11.776 12.94 12.436 12.94C13.168 12.94 13.822 13.114 14.398 13.462C14.974 13.798 15.424 14.29 15.748 14.938C16.084 15.574 16.252 16.342 16.252 17.242C16.252 18.13 16.066 18.886 15.694 19.51C15.322 20.134 14.812 20.608 14.164 20.932C13.516 21.256 12.772 21.418 11.932 21.418ZM11.428 19.438C11.836 19.438 12.208 19.348 12.544 19.168C12.892 18.988 13.168 18.736 13.372 18.412C13.588 18.076 13.696 17.698 13.696 17.278C13.696 16.834 13.6 16.45 13.408 16.126C13.228 15.79 12.976 15.532 12.652 15.352C12.34 15.16 11.992 15.064 11.608 15.064C11.272 15.064 10.972 15.112 10.708 15.208C10.456 15.292 10.228 15.424 10.024 15.604C9.832 15.772 9.664 15.988 9.52 16.252V18.178C9.616 18.43 9.754 18.652 9.934 18.844C10.114 19.036 10.33 19.186 10.582 19.294C10.846 19.39 11.128 19.438 11.428 19.438Z" fill="white"/>
<path d="M21.4364 21.418C20.7044 21.418 20.0504 21.25 19.4744 20.914C18.8984 20.566 18.4424 20.068 18.1064 19.42C17.7824 18.772 17.6204 18.004 17.6204 17.116C17.6204 16.228 17.8004 15.472 18.1604 14.848C18.5204 14.224 19.0124 13.75 19.6364 13.426C20.2604 13.102 20.9684 12.94 21.7604 12.94C22.2644 12.94 22.7444 13.018 23.2004 13.174C23.6684 13.33 24.0584 13.57 24.3704 13.894V14.686V7H26.8724V21.202H24.3524V19.672L24.5504 20.212C24.1424 20.548 23.6864 20.836 23.1824 21.076C22.6784 21.304 22.0964 21.418 21.4364 21.418ZM22.2644 19.294C22.6004 19.294 22.8944 19.252 23.1464 19.168C23.4104 19.072 23.6384 18.94 23.8304 18.772C24.0344 18.592 24.2084 18.37 24.3524 18.106V16.18C24.2564 15.916 24.1064 15.694 23.9024 15.514C23.7104 15.322 23.4704 15.178 23.1824 15.082C22.9064 14.974 22.6004 14.92 22.2644 14.92C21.8924 14.92 21.5444 15.016 21.2204 15.208C20.9084 15.388 20.6564 15.64 20.4644 15.964C20.2724 16.288 20.1764 16.66 20.1764 17.08C20.1764 17.5 20.2724 17.878 20.4644 18.214C20.6564 18.55 20.9084 18.814 21.2204 19.006C21.5444 19.198 21.8924 19.294 22.2644 19.294Z" fill="white"/>
</svg>
